<svg version="1.1" id="Layer_1" xmlns="http://www.w3.org/2000/svg" xmlns:xlink="http://www.w3.org/1999/xlink" x="0px" y="0px"
	 width="100%" viewBox="0 0 1024 1024" enable-background="new 0 0 1024 1024" xml:space="preserve">
<path fill="#000000" opacity="1.000000" stroke="none" 
	d="
M728.199402,163.143707 
	C723.967773,181.493942 719.811340,199.436768 715.544739,217.855438 
	C719.841125,216.424637 722.597229,213.265854 725.684143,210.777924 
	C738.646729,200.330734 751.434937,189.667313 764.296265,179.094376 
	C767.023499,176.852402 774.518982,178.825790 775.485352,182.061798 
	C776.105957,184.140076 774.390259,184.992828 773.137756,186.022385 
	C758.610535,197.963669 744.076538,209.896606 729.542297,221.829376 
	C724.784363,225.735672 719.913879,229.513412 715.290405,233.572632 
	C710.876709,237.447662 707.994995,233.342194 704.603638,231.858810 
	C701.373291,230.445862 701.831360,227.975891 702.508606,225.132309 
	C706.934814,206.546478 711.224426,187.928085 715.534424,169.314728 
	C715.673157,168.715759 715.552002,168.056641 715.552002,166.168152 
	C708.986511,171.353165 703.152710,175.868301 697.420105,180.508469 
	C688.106140,188.047562 678.772034,195.566391 669.629272,203.309708 
	C666.391541,206.051804 663.795410,206.840576 659.981201,204.130234 
	C656.397217,201.583511 654.324707,199.615997 655.611938,194.500656 
	C661.610291,170.662918 667.090759,146.694763 672.730652,122.767166 
	C673.041809,121.447281 673.274109,120.154495 674.549316,119.386017 
	C683.222534,121.775002 684.727661,124.056755 682.751587,132.343323 
	C678.470581,150.295013 674.108521,168.227371 669.793213,186.170914 
	C669.607178,186.944824 669.152039,187.755157 669.871948,188.633636 
	C672.135925,188.312103 673.512878,186.514175 675.134583,185.193207 
	C689.070984,173.841019 703.113403,162.610962 716.787109,150.949203 
	C720.902893,147.439011 723.577759,148.953522 727.243652,151.207916 
	C731.000977,153.518539 730.214172,156.254715 729.220886,159.373550 
	C728.867737,160.482452 728.587891,161.614700 728.199402,163.143707 
z"/>
<path fill="#000000" opacity="1.000000" stroke="none" 
	d="
M903.251892,432.933899 
	C892.711731,453.556549 869.903442,461.925049 849.348328,452.469940 
	C836.996521,446.788239 830.471741,435.981293 827.203735,423.252350 
	C824.605469,413.132324 822.798706,402.811401 820.397034,392.637177 
	C819.617798,389.336243 820.652893,388.244934 823.778564,387.565887 
	C846.490723,382.631714 869.169861,377.545807 891.856689,372.495331 
	C894.687927,371.865051 897.734558,370.911743 898.602661,375.035645 
	C901.569275,389.128967 906.181763,402.914093 906.486694,417.511841 
	C906.597168,422.799042 904.847717,427.640198 903.251892,432.933899 
M838.791138,396.313873 
	C835.399109,397.075287 832.011353,397.885651 833.383179,402.657623 
	C835.586182,410.321503 836.353577,418.303894 839.203308,425.858124 
	C843.940918,438.416962 858.764893,448.181854 875.054077,442.918579 
	C888.675476,438.517273 897.895874,425.155304 895.550049,410.396851 
	C894.377808,403.021820 892.280334,395.796661 890.703186,388.481750 
	C890.140869,385.873657 888.790771,385.462433 886.357483,385.997864 
	C870.782959,389.424988 855.182495,392.733704 838.791138,396.313873 
z"/>
<path fill="#000000" opacity="1.000000" stroke="none" 
	d="
M135.269684,413.076569 
	C150.810928,405.962952 173.652283,409.055420 184.102921,422.565216 
	C189.518097,429.565491 192.900253,437.263947 193.355301,446.290222 
	C194.048035,460.031097 190.663132,473.393677 190.021713,486.999573 
	C189.887375,489.849487 187.934280,490.705872 185.493515,490.225372 
	C174.041031,487.970734 162.345230,488.009430 150.817429,486.414825 
	C138.820328,484.755310 126.765388,483.499115 114.720085,482.213318 
	C111.658669,481.886536 109.201942,481.079803 109.902824,477.504608 
	C112.362511,464.957550 111.997124,452.049561 115.161201,439.572021 
	C118.117104,427.915436 124.802902,419.356537 135.269684,413.076569 
M156.161224,421.212524 
	C140.815765,419.799377 130.945969,428.315125 126.566689,438.697906 
	C122.341682,448.714935 123.015137,459.512482 121.776810,469.909180 
	C126.371445,472.382172 131.016922,471.562347 135.403107,472.142273 
	C148.914185,473.928589 162.476700,475.322632 176.007660,476.964508 
	C178.610764,477.280365 180.365158,476.697998 180.566437,473.868622 
	C181.097046,466.411072 182.972214,459.130798 182.877304,451.563293 
	C182.668121,434.888092 173.691544,424.122467 156.161224,421.212524 
z"/>
<path fill="#000000" opacity="1.000000" stroke="none" 
	d="
M797.865845,339.200470 
	C788.749084,330.828430 784.983704,320.873199 787.405762,308.750153 
	C786.327698,308.834930 785.807800,308.757629 785.387085,308.926880 
	C780.394043,310.936127 776.764648,309.076111 775.723450,303.881073 
	C775.122986,300.885223 777.846619,300.327972 779.513123,299.326538 
	C792.778503,291.355194 806.127197,283.522675 819.450256,275.647430 
	C827.472229,270.905701 835.606079,266.340332 843.469116,261.348358 
	C847.496094,258.791779 848.942566,260.999542 850.807678,263.939697 
	C852.700256,266.923218 853.303528,269.106842 849.559143,271.221558 
	C842.194763,275.380737 835.011719,279.860840 826.691345,284.844482 
	C840.837769,290.669952 848.163330,300.920471 848.882507,315.164215 
	C849.243652,322.314606 846.270081,328.927917 841.281982,334.195587 
	C830.513855,345.567169 812.920166,350.833374 797.865845,339.200470 
M835.871277,321.226776 
	C836.990906,318.094147 838.166931,314.982910 837.612976,311.537079 
	C836.165344,302.533020 829.957886,294.981689 821.854614,293.527069 
	C812.865051,291.913391 805.372192,295.559906 799.845276,302.404205 
	C792.696167,311.257324 795.627319,325.277466 805.338867,331.154175 
	C815.865051,337.523895 828.044006,333.818726 835.871277,321.226776 
z"/>
<path fill="#000000" opacity="1.000000" stroke="none" 
	d="
M772.874084,755.145203 
	C774.087891,756.546631 775.088013,757.663147 776.036011,758.822388 
	C781.661682,765.702332 781.342957,767.098816 772.917786,771.711853 
	C771.321777,770.251282 769.657593,768.728333 767.928101,767.145691 
	C759.967285,788.082153 747.762268,797.131897 731.763367,794.148987 
	C717.977112,791.578613 705.701172,776.770935 705.629639,762.625671 
	C705.547424,746.353638 716.049561,736.081726 736.865112,732.151611 
	C737.320862,730.009155 735.640381,728.886230 734.537964,727.552734 
	C730.721252,722.935791 727.057434,718.162964 722.913513,713.855347 
	C719.488403,710.295044 720.579163,708.067200 723.872803,705.383118 
	C727.108887,702.746155 729.086304,703.371399 731.669250,706.469727 
	C745.205078,722.706482 758.958557,738.761719 772.874084,755.145203 
M728.310425,743.674805 
	C720.896667,747.681824 717.118164,753.875000 717.367615,762.324707 
	C717.618469,770.818542 722.356384,776.780945 729.339661,780.644592 
	C736.083496,784.375854 743.257324,783.858582 749.621216,779.330933 
	C755.807861,774.929565 759.709717,768.832275 758.510254,761.028687 
	C756.374512,747.134766 741.165100,736.709412 728.310425,743.674805 
z"/>
<path fill="#000000" opacity="1.000000" stroke="none" 
	d="
M361.487671,183.483246 
	C356.565491,170.925354 351.780029,158.727921 347.032684,146.627594 
	C353.941162,141.100235 355.839630,141.289780 360.358185,148.319397 
	C366.021393,136.968491 375.463104,131.708145 387.520966,131.116074 
	C394.345581,130.780975 400.616058,132.715500 406.176788,136.933929 
	C417.343292,145.405014 422.247864,164.493378 416.112976,176.148514 
	C408.713013,190.207062 393.153656,196.425385 377.584259,191.185455 
	C378.587616,197.285904 381.561127,202.439804 383.375458,207.960968 
	C384.048431,210.008926 384.742401,212.100189 385.798126,213.961060 
	C387.636963,217.202347 386.823151,218.920425 383.442230,220.422226 
	C377.398956,223.106552 377.030060,223.052979 374.587830,216.766922 
	C370.316528,205.773148 365.950623,194.816116 361.487671,183.483246 
M399.654327,179.233185 
	C410.749451,171.274002 408.338531,155.467819 400.676239,147.452271 
	C392.048645,138.426910 375.119141,140.913620 369.316956,151.652634 
	C363.570435,162.288681 367.712921,171.686066 374.270477,178.437469 
	C380.654663,185.010376 389.228180,185.152832 399.654327,179.233185 
z"/>
<path fill="#000000" opacity="1.000000" stroke="none" 
	d="
M183.972092,545.946716 
	C180.315216,550.299561 177.013641,554.496704 173.421448,558.428284 
	C170.976700,561.104004 171.618454,562.496460 174.224350,564.769287 
	C180.467499,570.214539 187.129593,572.405579 195.150223,569.580322 
	C200.774170,567.599304 201.060165,572.114990 202.028442,575.507263 
	C203.318375,580.026306 199.917191,580.230103 196.913055,580.844360 
	C172.972794,585.739136 149.033524,590.639282 125.111732,595.623169 
	C121.840050,596.304810 119.351692,596.746216 118.578789,592.242432 
	C117.506996,585.996948 117.789673,584.636902 122.841377,583.856995 
	C136.980499,581.674011 150.736603,577.533325 164.947220,575.737610 
	C165.885559,575.619019 166.773117,575.098755 167.683685,574.765625 
	C167.742981,572.272278 165.787964,571.584351 164.420135,570.576782 
	C156.107574,564.453796 147.904785,558.158447 139.326828,552.427246 
	C133.484589,548.523865 132.810455,543.005615 132.267014,536.706970 
	C135.582230,536.660522 137.233337,538.738953 139.217957,540.052124 
	C145.467102,544.186951 151.789368,548.229004 157.831451,552.651184 
	C160.770874,554.802551 162.293472,554.069763 164.358978,551.542114 
	C171.732468,542.518677 179.310944,533.662598 186.825851,524.755005 
	C187.662659,523.763062 188.373871,522.518372 189.973068,522.660400 
	C193.831100,527.529358 194.118118,532.939331 190.693604,537.439514 
	C188.576889,540.221069 186.370010,542.934082 183.972092,545.946716 
z"/>
<path fill="#000000" opacity="1.000000" stroke="none" 
	d="
M183.270950,380.105164 
	C182.097717,383.459259 181.101273,386.463531 179.934006,389.399933 
	C178.544800,392.894592 180.069138,393.837372 183.339310,393.900879 
	C192.508774,394.078949 201.775970,384.544586 202.660706,373.738464 
	C202.931915,370.425812 203.107452,367.070312 201.931259,363.846039 
	C200.497269,359.915131 203.290009,358.965546 206.038757,357.920563 
	C209.199341,356.719025 210.720016,358.502075 211.788223,361.039307 
	C216.017685,371.085144 211.630951,387.482117 202.220169,396.906799 
	C194.026062,405.112946 181.268814,407.502075 170.299637,402.961731 
	C159.222351,398.376709 151.673737,390.950714 150.176178,378.490845 
	C147.736053,358.188843 165.100342,339.500549 185.872726,344.839600 
	C187.001526,345.129730 188.121674,345.493073 189.269455,345.662811 
	C193.528534,346.292603 194.360321,348.662598 193.001984,352.443726 
	C189.741577,361.519501 186.575974,370.629272 183.270950,380.105164 
M163.857452,385.570374 
	C165.483307,387.451874 167.176559,389.224060 169.991150,389.582397 
	C171.607376,387.397675 172.355042,385.031219 173.172531,382.688934 
	C175.912552,374.838226 178.660568,366.990234 181.441071,359.153809 
	C182.793594,355.341888 181.748138,353.947876 177.733307,354.336945 
	C162.733932,355.790375 155.024734,372.293365 163.857452,385.570374 
z"/>
<path fill="#000000" opacity="1.000000" stroke="none" 
	d="
M838.070801,591.738831 
	C853.582947,591.919006 864.493774,599.235840 869.704651,612.278015 
	C876.117249,628.327820 863.226990,655.798523 837.915344,652.141479 
	C825.485779,650.345703 823.373962,650.584534 829.257568,638.039612 
	C833.764954,628.429077 837.273071,618.347351 841.143127,608.442993 
	C841.769104,606.841003 843.243713,605.021790 841.698669,603.362549 
	C840.339111,601.902466 838.281921,602.316467 836.469666,602.572021 
	C824.238281,604.297180 815.776855,617.174500 818.458862,630.778870 
	C819.292175,635.005920 817.869080,636.462952 814.322876,637.627808 
	C810.089905,639.018188 809.376465,635.917786 808.576660,633.322021 
	C803.861267,618.017883 815.963318,591.203918 838.070801,591.738831 
M838.641602,637.734070 
	C837.034119,640.979309 838.641113,641.794312 841.617981,641.941895 
	C854.454285,642.578186 864.752380,628.389893 859.996704,616.431091 
	C858.330627,612.241272 856.145935,608.381775 850.929871,606.898254 
	C846.887756,617.079285 842.918701,627.076172 838.641602,637.734070 
z"/>
<path fill="#000000" opacity="1.000000" stroke="none" 
	d="
M249.513779,263.510437 
	C245.080139,268.880005 240.887848,273.990265 236.722626,279.067535 
	C242.472717,284.323669 252.222244,283.602783 259.375854,277.792450 
	C264.816223,273.373627 267.936188,267.560944 268.682007,260.721008 
	C269.158600,256.350037 271.893005,256.192505 274.989105,256.282349 
	C278.682373,256.389465 279.106659,258.904327 278.815399,261.888641 
	C277.256805,277.858368 262.049042,296.356873 240.723328,293.100952 
	C228.909256,291.297211 220.725769,283.963165 216.216965,273.281616 
	C211.911987,263.082916 213.569138,253.012634 220.364685,244.128799 
	C232.595901,228.138901 251.055115,228.504471 264.209625,239.383194 
	C266.755493,241.488602 267.242462,243.212387 264.778290,245.897903 
	C259.607727,251.532883 254.744522,257.449890 249.513779,263.510437 
M229.465271,273.003662 
	C238.320923,264.612091 245.926086,255.171722 253.368637,245.494492 
	C245.165390,240.148315 235.657684,241.464767 229.526749,248.371216 
	C222.955154,255.774048 222.707718,265.102844 229.465271,273.003662 
z"/>
<path fill="#000000" opacity="1.000000" stroke="none" 
	d="
M709.012878,813.724731 
	C699.641907,832.052551 678.726440,837.734131 663.465088,826.422119 
	C663.064331,826.125061 662.632263,825.855713 662.283752,825.504883 
	C658.879639,822.079163 654.382690,818.722046 653.806091,814.079834 
	C653.072876,808.176941 659.914490,808.228516 663.441467,806.050354 
	C672.333618,800.558411 681.745361,795.907288 690.954407,790.929321 
	C692.246704,790.230713 693.799805,789.876099 694.329224,788.240295 
	C690.536865,781.702332 680.861084,778.962524 672.252625,782.120972 
	C665.939026,784.437439 660.684875,788.239014 658.042847,794.601135 
	C656.489258,798.342407 654.444397,798.178528 651.438049,796.780396 
	C648.293579,795.318054 647.312256,793.598389 648.998962,790.144287 
	C655.270020,777.302612 666.265686,771.206421 679.667664,770.167664 
	C691.098999,769.281677 700.269409,774.943237 706.328308,784.759094 
	C711.866638,793.731567 713.242065,803.330688 709.012878,813.724731 
M692.076721,818.677979 
	C698.308289,814.342407 701.479309,808.517151 700.804016,800.804260 
	C700.519836,797.558289 699.231079,796.139954 695.941711,797.926514 
	C693.463867,799.272217 690.899536,800.459167 688.427307,801.814514 
	C681.187500,805.783630 673.974548,809.801697 666.740906,813.806152 
	C672.046387,822.615417 680.755798,824.292664 692.076721,818.677979 
z"/>
<path fill="#000000" opacity="1.000000" stroke="none" 
	d="
M480.341644,143.439606 
	C469.149231,145.451279 458.372803,147.431900 447.557007,149.167038 
	C443.786987,149.771835 440.146484,150.570068 436.684967,152.011108 
	C437.882416,158.911102 444.254364,164.098145 452.101105,164.636703 
	C460.061493,165.183044 467.441193,163.712723 472.984253,157.409332 
	C475.565887,154.473572 477.406494,155.778839 479.606079,157.760361 
	C482.020721,159.935593 482.440247,161.900055 480.163300,164.548355 
	C470.044189,176.317703 445.789825,179.729736 432.698456,167.225159 
	C420.114075,155.204834 419.276062,133.322556 432.131073,121.584312 
	C440.605621,113.846024 451.039398,111.293312 462.303925,114.615250 
	C474.459198,118.199890 480.606110,127.175789 483.163025,139.071472 
	C483.611176,141.156555 482.893555,142.666199 480.341644,143.439606 
M441.447876,141.708237 
	C450.200500,140.917053 458.601105,137.928696 467.455414,137.661026 
	C471.457977,137.540009 471.097168,135.051010 469.500824,132.500595 
	C465.243591,125.698990 459.188171,122.290314 451.067322,123.264053 
	C443.765747,124.139557 438.323059,127.684395 435.623932,134.789368 
	C434.808258,136.936462 433.282043,139.266983 434.644592,141.427734 
	C436.165161,143.839050 438.600342,141.399918 441.447876,141.708237 
z"/>
<path fill="#000000" opacity="1.000000" stroke="none" 
	d="
M890.397095,477.728516 
	C903.887817,498.892151 891.505615,523.699890 866.938660,525.645325 
	C862.408936,526.004028 860.588745,524.643677 860.699646,519.913086 
	C860.984558,507.760590 860.940430,495.599670 860.952332,483.442047 
	C860.954224,481.523926 861.804688,479.057129 859.835754,477.868011 
	C857.568481,476.498749 855.307251,478.085297 853.354675,479.253784 
	C843.489624,485.157806 840.967529,500.263153 848.028687,511.718323 
	C849.535156,514.162292 850.221008,515.971741 847.719116,518.172180 
	C844.319458,521.162170 842.278259,521.047424 839.582825,517.227051 
	C834.539978,510.079834 832.938171,502.027374 833.811890,493.495636 
	C835.638733,475.657379 849.443726,463.771179 867.264709,464.979767 
	C876.634155,465.615234 884.512878,469.664215 890.397095,477.728516 
M885.945618,499.380280 
	C887.674622,490.954254 883.030090,481.689514 875.402588,478.349426 
	C870.856812,476.358856 869.293335,477.286652 869.222046,482.234924 
	C869.128662,488.719208 869.074768,495.207642 869.205505,501.690216 
	C869.287781,505.767975 868.521973,509.923401 869.785400,513.937134 
	C877.746521,513.096619 882.311707,509.085876 885.945618,499.380280 
z"/>
<path fill="#000000" opacity="1.000000" stroke="none" 
	d="
M756.136353,280.941132 
	C747.922546,273.558014 742.506104,265.425873 742.534973,254.006927 
	C742.569946,240.170654 749.893982,231.410690 761.255005,225.775208 
	C774.851501,219.030792 789.694275,223.761185 798.969604,236.763565 
	C807.045349,248.084335 805.769348,263.187653 795.830872,273.914429 
	C791.624573,278.454376 790.490967,278.513092 786.371765,274.066956 
	C778.113586,265.153442 769.915527,256.184204 761.672058,247.257034 
	C760.458252,245.942657 759.458679,244.307571 757.489380,243.959686 
	C750.310791,251.622131 752.333069,264.724915 761.823486,272.440826 
	C764.852295,274.903351 768.259033,276.623566 772.061096,277.392334 
	C775.697632,278.127655 776.507263,280.374573 775.972168,283.632233 
	C775.374573,287.270691 772.900635,287.420105 769.990112,287.043579 
	C764.889099,286.383514 760.468933,284.212189 756.136353,280.941132 
M787.151001,238.321915 
	C779.339783,231.996170 770.762024,231.587326 764.502930,237.598114 
	C771.911438,245.821518 779.286316,254.106171 786.788574,262.273865 
	C788.978210,264.657837 790.477600,263.067200 791.810303,260.968506 
	C795.928040,254.483902 794.441467,246.316391 787.151001,238.321915 
z"/>
<path fill="#000000" opacity="1.000000" stroke="none" 
	d="
M230.866669,647.275146 
	C233.269196,650.574829 236.078918,653.607666 231.002594,656.223633 
	C230.861374,657.602478 231.695160,658.045166 232.414581,658.290710 
	C241.199265,661.289185 245.957138,668.090454 249.401627,676.147522 
	C252.925446,684.390259 250.639938,693.034546 243.650558,697.950989 
	C236.242096,703.162292 228.554077,702.306885 221.523468,695.546509 
	C216.169922,690.398743 212.652145,683.931152 208.628555,677.822510 
	C207.643143,676.326416 206.884216,674.595764 205.188461,673.777954 
	C196.995331,678.255249 194.962631,684.669006 199.055573,692.524597 
	C202.082626,698.334473 206.580811,702.637451 212.296570,705.721863 
	C214.789261,707.066956 216.399033,708.539551 214.351089,711.578796 
	C212.530716,714.280273 210.732742,716.555481 207.128845,714.410217 
	C195.993790,707.782227 188.236130,698.471619 186.172424,685.500061 
	C184.734238,676.460083 189.605789,669.759460 196.788544,664.914978 
	C205.893372,658.774353 215.248978,653.005188 224.506119,647.090881 
	C226.514435,645.807678 228.561539,644.430420 230.866669,647.275146 
M236.032181,688.821777 
	C239.403305,686.633850 241.398880,683.642517 240.254730,679.577148 
	C238.427673,673.085266 235.014023,667.751587 228.321930,665.185425 
	C223.608643,663.378113 219.299576,663.783997 215.193314,666.915710 
	C213.512497,668.197754 213.135162,669.374390 214.283432,671.079956 
	C217.620850,676.037292 220.867828,681.058960 224.329361,685.928162 
	C227.078705,689.795532 230.886337,690.762634 236.032181,688.821777 
z"/>
<path fill="#000000" opacity="1.000000" stroke="none" 
	d="
M493.661835,826.522217 
	C491.080231,846.416931 488.677734,865.888184 486.073090,885.332214 
	C485.049835,892.971130 484.875488,892.706665 477.269745,891.692505 
	C462.940979,889.781860 448.558716,888.273926 434.226776,886.385132 
	C429.205994,885.723511 427.432953,881.378418 429.858978,876.866699 
	C430.972687,874.795471 432.738434,875.549194 434.264313,875.749512 
	C445.302307,877.198669 456.334747,878.693237 467.356384,880.261963 
	C473.796936,881.178772 473.875732,881.214722 474.961395,874.800598 
	C475.848022,869.562256 476.593750,864.299622 477.513184,859.067383 
	C478.229218,854.992371 476.657196,853.235168 472.506897,853.115112 
	C462.666595,852.830566 453.061279,850.495056 443.302185,849.510742 
	C439.147156,849.091614 438.459015,846.952942 438.932129,843.418884 
	C439.441864,839.611511 441.222168,838.533386 445.067780,839.134033 
	C455.079834,840.697632 465.174072,841.730591 475.195862,843.238708 
	C478.208069,843.691956 479.532745,842.973572 479.903015,839.936340 
	C480.808136,832.511536 482.019684,825.122070 482.822479,817.687561 
	C483.332916,812.960022 485.736237,812.165100 489.984192,812.795349 
	C494.106934,813.406921 495.481598,815.092407 494.481079,819.146423 
	C493.929016,821.383301 493.980621,823.769165 493.661835,826.522217 
z"/>
<path fill="#000000" opacity="1.000000" stroke="none" 
	d="
M760.202759,719.398438 
	C753.465271,696.707214 770.126587,678.355164 787.202454,676.507446 
	C799.341675,675.193848 809.132935,680.296875 816.125000,689.860596 
	C823.159058,699.481812 823.829651,710.369019 818.519287,721.013611 
	C812.405212,733.269287 802.449890,740.893494 788.351807,740.057556 
	C775.190613,739.277222 765.888428,731.787415 760.202759,719.398438 
M776.745483,692.187561 
	C766.865051,702.153931 766.725098,713.880981 776.381226,722.710449 
	C783.638855,729.346741 793.628235,730.579712 801.201416,725.773926 
	C809.398193,720.572388 812.971863,710.948669 809.733521,701.946228 
	C805.998352,691.562561 790.203735,681.775757 776.745483,692.187561 
z"/>
<path fill="#000000" opacity="1.000000" stroke="none" 
	d="
M290.841278,209.962067 
	C285.875580,198.959488 286.744781,188.780090 293.925842,179.553421 
	C301.966034,169.222900 312.507751,163.884003 325.803284,166.141357 
	C339.340942,168.439850 349.579803,179.510696 351.205627,192.816727 
	C352.854553,206.311890 345.810638,219.024200 333.311310,225.110962 
	C316.431976,233.330643 299.662567,227.461517 290.841278,209.962067 
M304.136108,209.311768 
	C304.566071,209.818680 304.969635,210.351044 305.429962,210.828674 
	C312.223480,217.877930 320.005402,219.829117 327.446930,216.360016 
	C337.485809,211.680038 340.973999,205.480713 339.761475,194.474167 
	C338.876495,186.440552 331.745300,178.645370 323.609161,176.817856 
	C315.572601,175.012711 307.420044,178.234497 302.674927,185.090775 
	C297.696716,192.283859 298.027924,200.016815 304.136108,209.311768 
z"/>
<path fill="#000000" opacity="1.000000" stroke="none" 
	d="
M372.303131,842.192810 
	C370.761108,847.932007 367.479767,845.631470 364.393585,844.510071 
	C361.357941,843.407043 359.839294,842.281921 361.283783,838.351257 
	C367.188721,822.283142 372.641327,806.048584 378.240356,789.868347 
	C378.997528,787.680237 379.837097,785.588684 382.753845,786.715637 
	C385.473938,787.766541 389.550690,787.378601 389.082367,792.174683 
	C388.989014,793.130737 388.310028,794.068970 389.293304,795.497375 
	C393.024078,794.726440 396.933014,793.618164 401.070496,793.718506 
	C406.790558,793.857361 411.906738,795.586304 416.590332,798.582581 
	C426.254852,804.765259 429.892975,814.390015 426.327942,825.985168 
	C423.055389,836.629150 418.887817,846.994690 415.354279,857.563049 
	C413.797302,862.219604 411.290985,860.924805 408.015472,859.759277 
	C404.477051,858.500244 403.207611,857.063171 404.645081,853.198425 
	C408.063110,844.009033 411.214508,834.714661 414.242340,825.387573 
	C417.588043,815.081116 414.553894,808.177917 405.502319,804.779724 
	C395.443268,801.003235 386.234894,804.434509 382.315277,814.100769 
	C378.632111,823.183777 375.678009,832.562439 372.303131,842.192810 
z"/>
<path fill="#000000" opacity="1.000000" stroke="none" 
	d="
M260.794220,779.175903 
	C258.189606,775.906860 255.550110,773.114441 253.799774,769.646973 
	C251.876160,765.836243 254.536652,764.631348 257.204285,763.365051 
	C259.853455,762.107544 261.970306,761.471619 263.519318,765.204712 
	C266.293671,771.890808 271.314850,776.762634 277.650787,780.163452 
	C280.890869,781.902588 284.636932,782.678406 287.360413,779.627136 
	C290.199341,776.446411 289.172974,772.692383 286.874268,769.507080 
	C283.659271,765.052002 280.224213,760.755737 276.880432,756.393677 
	C270.814331,748.480408 270.128143,741.836731 274.770721,735.935181 
	C279.922089,729.386841 288.973480,727.478210 297.333099,731.506836 
	C307.414978,736.365479 314.885986,743.969360 320.109619,753.874084 
	C322.324402,758.073547 320.602448,760.268005 316.863983,762.110779 
	C312.733887,764.146606 311.878204,761.513123 310.478119,758.537231 
	C307.237000,751.648132 302.767487,745.712708 295.814301,742.028137 
	C294.024109,741.079529 292.262848,740.301147 290.182800,740.214417 
	C287.649567,740.108887 285.594269,740.782410 284.191010,743.006592 
	C282.761566,745.272278 283.059570,747.505615 284.518219,749.553223 
	C286.835114,752.805481 289.260284,755.982361 291.699097,759.145325 
	C293.224213,761.123291 294.924072,762.967407 296.432220,764.957397 
	C302.344330,772.758606 302.680359,779.130249 297.578918,785.411926 
	C291.825775,792.496155 284.182098,794.265869 275.678101,790.506104 
	C269.926727,787.963257 265.250366,784.008118 260.794220,779.175903 
z"/>
<path fill="#000000" opacity="1.000000" stroke="none" 
	d="
M199.610291,648.842773 
	C188.099472,653.626465 177.004425,654.046692 167.236435,646.187561 
	C156.788666,637.781433 152.099319,626.629395 154.641037,613.029785 
	C154.882278,611.738953 155.292114,610.426086 155.900009,609.268555 
	C157.180283,606.830872 158.252213,603.429810 162.045685,605.692932 
	C164.824844,607.350952 168.389908,608.441833 165.908737,613.559937 
	C162.059967,621.499023 165.717621,632.186768 173.154846,637.447876 
	C180.428299,642.593140 191.621124,641.673645 199.112900,635.315369 
	C209.956604,626.112305 207.989441,608.995300 195.309982,602.229187 
	C192.989639,600.991150 190.360229,600.175781 190.938828,596.513245 
	C191.833008,590.852966 193.154755,589.836365 198.459518,591.987793 
	C207.672211,595.724365 213.122070,603.071716 215.266388,612.335999 
	C218.828476,627.725647 214.860733,640.781006 199.610291,648.842773 
z"/>
<path fill="#000000" opacity="1.000000" stroke="none" 
	d="
M214.985260,296.051727 
	C221.541458,304.892822 227.653259,313.631409 234.310913,321.932190 
	C237.412659,325.799438 235.549515,328.556152 233.892609,331.831329 
	C232.239609,335.098785 230.102112,335.965942 226.264816,335.488312 
	C208.302139,333.252319 190.277267,331.519714 172.288025,329.488403 
	C170.132645,329.245056 166.086288,329.979340 167.329529,326.023376 
	C168.290741,322.964874 169.079727,318.228271 174.081665,318.721893 
	C184.168259,319.717224 194.215500,321.104523 204.292191,322.209869 
	C209.704437,322.803528 215.088364,323.948059 220.417618,323.645447 
	C221.528122,322.040558 220.412354,321.220428 219.776657,320.350281 
	C211.924805,309.603119 204.084091,298.847412 196.165726,288.149323 
	C191.609070,281.993042 191.804092,279.600952 198.122711,273.450989 
	C203.699310,280.930054 209.231842,288.350006 214.985260,296.051727 
z"/>
<path fill="#000000" opacity="1.000000" stroke="none" 
	d="
M869.340454,550.528198 
	C860.657043,552.423828 852.376831,554.196838 844.101624,555.993103 
	C843.802734,556.058044 843.553528,556.351501 842.947327,556.767517 
	C845.552185,560.073792 849.226013,561.977844 852.486267,564.297363 
	C861.706970,570.857483 871.079224,577.204163 880.333740,583.717346 
	C882.033386,584.913513 884.286621,586.035889 883.724854,588.739380 
	C883.225403,591.142822 883.382507,594.229919 881.105530,595.496033 
	C878.612427,596.882324 876.995972,594.034668 875.193726,592.780640 
	C860.708313,582.701660 846.398926,572.364075 831.761902,562.512268 
	C827.304016,559.511780 828.259766,556.155701 828.851624,552.116089 
	C829.428284,548.179504 832.110352,547.598083 835.119568,546.933350 
	C852.328308,543.131958 869.515686,539.232239 886.745361,535.528992 
	C889.013550,535.041443 892.200378,532.925415 893.531067,536.830688 
	C894.691895,540.237793 892.081238,545.157593 888.689087,546.040527 
	C882.419922,547.672424 876.064087,548.971741 869.340454,550.528198 
z"/>
<path fill="#000000" opacity="1.000000" stroke="none" 
	d="
M256.967896,735.968872 
	C253.017685,739.570129 249.346909,742.951782 245.618332,746.268372 
	C243.913788,747.784546 243.212479,749.109192 244.873306,751.306519 
	C249.340683,757.216980 249.032684,758.229248 242.484756,761.915283 
	C239.246201,761.030579 238.504761,756.299316 235.286728,756.339478 
	C232.075317,756.379456 230.498032,760.220032 227.840622,761.830994 
	C223.510529,764.456177 222.816925,759.501221 220.592697,757.878723 
	C218.646973,756.459290 218.744553,754.729492 220.673294,752.905579 
	C227.870880,746.099182 227.822998,746.048523 221.451523,739.116638 
	C216.348648,733.564941 216.620621,732.105103 223.838699,727.895813 
	C227.412598,731.657288 231.052017,735.487732 234.805084,739.437805 
	C237.773026,738.541504 239.417038,736.085632 241.501144,734.305420 
	C246.938950,729.660645 252.207031,724.817871 257.602295,720.122498 
	C265.328766,713.398315 264.798828,707.081238 255.822159,702.113647 
	C253.399826,700.773132 252.656952,699.331909 253.961639,696.967285 
	C255.137253,694.836548 255.956558,692.221497 259.426605,693.207886 
	C268.962738,695.918518 276.348999,709.137695 273.310364,718.298157 
	C271.655029,723.288452 267.492584,726.296143 263.932617,729.747131 
	C261.784271,731.829651 259.465759,733.736694 256.967896,735.968872 
z"/>
<path fill="#000000" opacity="1.000000" stroke="none" 
	d="
M259.656677,196.365723 
	C273.435242,211.988632 286.891327,227.425751 300.594757,242.640076 
	C303.978088,246.396484 302.486938,248.469772 299.482361,251.213486 
	C296.070160,254.329437 294.123260,252.677795 291.738892,249.957794 
	C275.496796,231.429398 259.248810,212.904205 242.778748,194.579300 
	C239.792313,191.256561 240.500061,189.390030 243.411774,186.869797 
	C246.347107,184.329117 248.675995,183.119675 251.518494,187.102081 
	C253.825943,190.334885 256.765991,193.116180 259.656677,196.365723 
z"/>
<path fill="#000000" opacity="1.000000" stroke="none" 
	d="
M312.487671,811.436707 
	C308.010040,818.290344 303.513947,824.713806 299.552856,831.451782 
	C296.999603,835.794983 294.384003,834.435547 291.325043,832.558716 
	C288.214081,830.650085 287.442322,828.491882 289.629761,825.160034 
	C302.508484,805.543518 315.258759,785.842529 328.056061,766.172546 
	C328.599915,765.336670 329.226471,764.552307 329.738525,763.698364 
	C333.064423,758.151611 333.514648,758.208252 338.778992,761.687195 
	C342.310486,764.020874 341.689117,766.321777 339.816162,769.195923 
	C332.907928,779.796753 326.057129,790.435059 319.188110,801.061401 
	C317.018707,804.417480 314.859711,807.780212 312.487671,811.436707 
z"/>
<path fill="#000000" opacity="1.000000" stroke="none" 
	d="
M837.006104,669.899780 
	C845.975037,675.052856 854.644958,679.991150 863.244568,685.049133 
	C865.798523,686.551392 869.551636,687.503418 866.918335,692.026367 
	C863.987793,697.059998 862.411804,697.858948 857.423828,695.072266 
	C846.683777,689.071716 836.067871,682.849060 825.402466,676.714844 
	C815.025940,670.746826 804.709106,664.671265 794.246338,658.858521 
	C790.176270,656.597412 789.979553,654.203979 792.275391,650.438843 
	C794.616272,646.599915 796.762268,646.803162 800.325439,648.921143 
	C812.326538,656.054810 824.544922,662.822876 837.006104,669.899780 
z"/>
<path fill="#000000" opacity="1.000000" stroke="none" 
	d="
M331.517456,821.572937 
	C338.987000,807.438293 346.234009,793.606201 353.620087,779.848694 
	C355.324463,776.674133 356.486176,772.323181 361.983459,775.246826 
	C366.815002,777.816406 367.316406,778.651855 364.667450,783.669983 
	C353.423065,804.971375 342.178284,826.272583 330.925842,847.569702 
	C328.006958,853.094238 322.787781,853.468872 319.032166,848.487610 
	C317.815857,846.874329 318.904938,845.698364 319.578003,844.410217 
	C323.498657,836.906738 327.422668,829.404968 331.517456,821.572937 
z"/>
<path fill="#000000" opacity="1.000000" stroke="none" 
	d="
M627.205322,812.788086 
	C625.355164,807.730957 623.628906,803.049011 621.926270,798.358398 
	C620.205017,793.616516 624.313904,793.313171 626.907959,791.971558 
	C629.701538,790.526733 631.581421,791.348450 632.656921,794.424622 
	C636.445435,805.260681 640.337952,816.060242 644.187805,826.874817 
	C646.027283,832.042053 647.910461,837.194519 649.673279,842.387756 
	C650.537537,844.933960 652.508362,847.887878 648.098267,849.257507 
	C644.665283,850.323669 640.692505,853.236084 639.305298,846.799988 
	C639.183105,846.233093 638.584229,845.768921 637.750671,844.638489 
	C634.910522,850.564575 630.913147,854.847290 625.266785,857.368530 
	C623.343750,858.227295 620.966003,859.946899 619.724487,857.067871 
	C618.538879,854.318542 615.813721,851.055908 619.918823,848.236084 
	C620.056213,848.141846 620.196045,848.051147 620.333008,847.956177 
	C632.919006,839.230042 634.720825,833.153870 629.052246,818.898315 
	C628.317444,817.050598 627.902649,815.075562 627.205322,812.788086 
z"/>
<path fill="#000000" opacity="1.000000" stroke="none" 
	d="
M497.131409,168.522278 
	C496.840149,150.119492 496.780487,132.144562 496.571747,114.171364 
	C496.530884,110.655914 497.652161,108.918510 501.381866,108.899178 
	C504.833496,108.881287 507.393585,109.483490 507.239197,113.698700 
	C507.216492,114.318970 507.476379,114.949600 507.710602,116.084999 
	C512.286621,112.888374 516.582886,109.765305 521.930908,108.942886 
	C528.141907,107.987762 529.859924,109.710373 529.252930,115.874382 
	C529.037842,118.059212 528.257996,119.387306 525.954224,119.318855 
	C512.319519,118.913651 507.380737,130.589249 507.642395,142.317001 
	C507.794586,149.138199 508.097961,155.957947 508.131805,162.779358 
	C508.170288,170.531036 504.824524,172.378967 497.131409,168.522278 
z"/>
<path fill="#000000" opacity="1.000000" stroke="none" 
	d="
M566.042969,160.721924 
	C572.791382,159.029083 576.402466,160.205231 577.587341,164.455826 
	C578.711670,168.489182 577.990479,172.207962 573.958862,174.261261 
	C570.556519,175.994064 567.083252,175.580429 564.427185,172.629745 
	C561.822021,169.735657 562.463745,164.868286 566.042969,160.721924 
z"/>
<path fill="#000000" opacity="1.000000" stroke="none" 
	d="
M566.652344,810.124878 
	C570.286438,812.684875 571.238708,815.920105 569.809326,819.543640 
	C568.547363,822.742676 565.929260,824.259766 562.332031,824.307312 
	C558.810242,824.353821 556.658630,822.598145 555.363953,819.659302 
	C554.051392,816.679810 554.333679,813.645935 556.724792,811.344482 
	C559.466797,808.705200 562.744873,807.908264 566.652344,810.124878 
z"/>
</svg>